<svg width="507" height="508" viewBox="0 0 507 508" fill="none" xmlns="http://www.w3.org/2000/svg">
<path d="M253.5 0.50005C393.504 0.500044 507 113.996 507 254C507 394.004 393.504 507.5 253.5 507.5C113.496 507.5 -4.96106e-06 394.004 -1.10808e-05 254C-1.72006e-05 113.996 113.496 0.500056 253.5 0.50005ZM253.5 489.755C383.704 489.755 489.255 384.204 489.255 254C489.255 123.796 383.704 18.245 253.5 18.245C123.296 18.2451 17.745 123.796 17.745 254C17.745 384.204 123.296 489.755 253.5 489.755Z" fill="#00BDA3"/>
<path d="M116.024 328.971L121.529 315.233H119.9L115.063 327.401L110.235 315.233H108.557L114.072 328.971H116.024ZM126.448 329.157C127.978 329.157 129.107 328.539 129.843 327.587V328.971H131.305V319.678H129.843V321.062C129.107 320.12 127.978 319.492 126.448 319.492C123.837 319.492 121.806 321.533 121.806 324.32C121.806 327.116 123.837 329.157 126.448 329.157ZM126.624 327.784C124.652 327.784 123.298 326.243 123.298 324.32C123.298 322.406 124.632 320.865 126.624 320.865C128.557 320.865 129.931 322.357 129.931 324.32C129.931 326.292 128.557 327.784 126.624 327.784ZM136.212 328.971V323.731C136.212 321.965 137.498 320.885 139.058 320.885C140.756 320.885 141.737 321.925 141.737 323.692V328.971H143.199V323.211C143.199 320.964 141.619 319.492 139.323 319.492C138.185 319.492 136.948 319.894 136.193 321.003V319.678H134.74V328.971H136.212ZM150.296 333.043C153.171 333.043 155.212 331.365 155.212 328.333V319.678H153.74V321.072C153.033 320.11 151.925 319.492 150.423 319.492C147.813 319.492 145.821 321.444 145.821 324.251C145.821 327.067 147.813 329.02 150.423 329.02C151.925 329.02 153.033 328.412 153.74 327.44V328.392C153.74 330.561 152.307 331.709 150.296 331.709C149.04 331.709 147.911 331.287 147.028 330.62L146.38 331.797C147.322 332.582 148.814 333.043 150.296 333.043ZM150.59 327.646C148.618 327.646 147.313 326.135 147.313 324.251C147.313 322.377 148.618 320.865 150.59 320.865C152.504 320.865 153.868 322.337 153.868 324.251C153.868 326.184 152.504 327.646 150.59 327.646ZM162.752 329.157C164.989 329.157 166.971 327.852 166.971 325.095V319.678H165.499V324.957C165.499 326.881 164.342 327.784 162.752 327.784C161.162 327.784 159.994 326.881 159.994 324.957V319.678H158.532V325.095C158.532 327.852 160.505 329.157 162.752 329.157ZM174.228 329.157C175.759 329.157 176.887 328.539 177.623 327.587V328.971H179.085V319.678H177.623V321.062C176.887 320.12 175.759 319.492 174.228 319.492C171.618 319.492 169.587 321.533 169.587 324.32C169.587 327.116 171.618 329.157 174.228 329.157ZM174.405 327.784C172.432 327.784 171.078 326.243 171.078 324.32C171.078 322.406 172.413 320.865 174.405 320.865C176.338 320.865 177.712 322.357 177.712 324.32C177.712 326.292 176.338 327.784 174.405 327.784ZM183.983 328.971V323.77C183.983 322.014 185.023 320.875 186.475 320.875C187.015 320.875 187.633 321.003 188.085 321.248L188.438 319.806C187.947 319.58 187.398 319.492 186.731 319.492C185.592 319.492 184.611 320.031 183.973 320.983V319.678H182.521V328.971H183.983ZM194.218 329.157C195.749 329.157 196.877 328.539 197.613 327.587V328.971H199.075V314.84H197.613V321.062C196.877 320.12 195.749 319.492 194.218 319.492C191.608 319.492 189.577 321.533 189.577 324.32C189.577 327.116 191.608 329.157 194.218 329.157ZM194.395 327.784C192.422 327.784 191.068 326.243 191.068 324.32C191.068 322.406 192.403 320.865 194.395 320.865C196.328 320.865 197.702 322.357 197.702 324.32C197.702 326.292 196.328 327.784 194.395 327.784ZM209.984 328.971V321.003H213.684V319.678H209.984V318.088C209.984 316.793 210.504 316.028 211.701 316.028C212.408 316.028 213.114 316.283 213.615 316.577L214.145 315.351C213.487 314.948 212.653 314.654 211.603 314.654C209.405 314.654 208.512 316.106 208.512 318.088V319.678H206.393V321.003H208.512V328.971H209.984ZM220.019 329.157C222.257 329.157 224.239 327.852 224.239 325.095V319.678H222.767V324.957C222.767 326.881 221.609 327.784 220.019 327.784C218.43 327.784 217.262 326.881 217.262 324.957V319.678H215.8V325.095C215.8 327.852 217.772 329.157 220.019 329.157ZM229.033 328.971V323.731C229.033 321.965 230.318 320.885 231.878 320.885C233.576 320.885 234.557 321.925 234.557 323.692V328.971H236.019V323.211C236.019 320.964 234.439 319.492 232.143 319.492C231.005 319.492 229.768 319.894 229.013 321.003V319.678H227.561V328.971H229.033ZM243.283 329.157C244.813 329.157 245.942 328.539 246.678 327.587V328.971H248.14V314.84H246.678V321.062C245.942 320.12 244.813 319.492 243.283 319.492C240.672 319.492 238.641 321.533 238.641 324.32C238.641 327.116 240.672 329.157 243.283 329.157ZM243.459 327.784C241.487 327.784 240.133 326.243 240.133 324.32C240.133 322.406 241.467 320.865 243.459 320.865C245.392 320.865 246.766 322.357 246.766 324.32C246.766 326.292 245.392 327.784 243.459 327.784ZM254.598 329.148C257.1 329.148 258.69 328.039 258.69 326.272C258.69 324.751 257.542 323.937 255.569 323.682L254.47 323.544C253.253 323.397 252.576 323.015 252.576 322.239C252.576 321.337 253.45 320.777 254.774 320.777C256.03 320.777 257.218 321.238 257.816 321.651L258.454 320.512C257.561 319.914 256.227 319.501 254.765 319.501C252.537 319.501 251.055 320.561 251.055 322.318C251.055 323.701 252.037 324.634 254.127 324.889L255.236 325.016C256.551 325.173 257.179 325.625 257.179 326.371C257.179 327.352 256.187 327.872 254.617 327.872C253.047 327.872 252.105 327.411 251.399 326.861L250.722 327.96C251.899 328.853 253.401 329.148 254.598 329.148ZM270.667 329.157C273.463 329.157 275.563 327.077 275.563 324.32C275.563 321.572 273.463 319.492 270.667 319.492C267.87 319.492 265.78 321.572 265.78 324.32C265.78 327.077 267.87 329.157 270.667 329.157ZM270.667 327.784C268.734 327.784 267.271 326.331 267.271 324.32C267.271 322.318 268.734 320.865 270.667 320.865C272.59 320.865 274.062 322.318 274.062 324.32C274.062 326.331 272.59 327.784 270.667 327.784ZM282.404 329.157C284.641 329.157 286.624 327.852 286.624 325.095V319.678H285.152V324.957C285.152 326.881 283.994 327.784 282.404 327.784C280.814 327.784 279.647 326.881 279.647 324.957V319.678H278.185V325.095C278.185 327.852 280.157 329.157 282.404 329.157ZM293.969 329.157C295.107 329.157 296.029 328.765 296.726 328.235L296.039 327.126C295.499 327.519 294.803 327.784 294.086 327.784C293.007 327.784 292.242 327.146 292.242 325.693V321.003H296.255V319.678H292.242V316.724H290.779V319.678H288.748V321.003H290.779V325.723C290.779 328.058 291.967 329.157 293.969 329.157ZM300.31 332.896V327.597C301.046 328.539 302.165 329.157 303.696 329.157C306.306 329.157 308.337 327.116 308.337 324.32C308.337 321.533 306.306 319.492 303.696 319.492C302.165 319.492 301.046 320.11 300.31 321.052V319.678H298.838V332.896H300.31ZM303.519 327.784C301.576 327.784 300.212 326.292 300.212 324.32C300.212 322.357 301.576 320.865 303.519 320.865C305.491 320.865 306.836 322.406 306.836 324.32C306.836 326.243 305.511 327.784 303.519 327.784ZM315.06 329.157C316.424 329.157 317.719 328.814 318.877 327.705L318.092 326.704C317.297 327.43 316.296 327.872 315.148 327.872C313.47 327.872 312.067 326.842 311.861 324.84H319.309C319.329 324.673 319.338 324.477 319.338 324.29C319.319 321.464 317.494 319.492 314.972 319.492C312.322 319.492 310.36 321.484 310.36 324.329C310.36 327.205 312.312 329.157 315.06 329.157ZM311.881 323.652C312.116 321.974 313.225 320.797 314.942 320.797C316.522 320.797 317.66 321.915 317.847 323.652H311.881ZM323.529 328.971V323.77C323.529 322.014 324.57 320.875 326.022 320.875C326.562 320.875 327.18 321.003 327.631 321.248L327.984 319.806C327.494 319.58 326.944 319.492 326.277 319.492C325.139 319.492 324.157 320.031 323.52 320.983V319.678H322.067V328.971H323.529ZM332.799 328.971V321.003H336.498V319.678H332.799V318.088C332.799 316.793 333.319 316.028 334.516 316.028C335.223 316.028 335.929 316.283 336.43 316.577L336.959 315.351C336.302 314.948 335.468 314.654 334.418 314.654C332.22 314.654 331.327 316.106 331.327 318.088V319.678H329.207V321.003H331.327V328.971H332.799ZM342.654 329.157C345.45 329.157 347.55 327.077 347.55 324.32C347.55 321.572 345.45 319.492 342.654 319.492C339.857 319.492 337.767 321.572 337.767 324.32C337.767 327.077 339.857 329.157 342.654 329.157ZM342.654 327.784C340.72 327.784 339.258 326.331 339.258 324.32C339.258 322.318 340.72 320.865 342.654 320.865C344.577 320.865 346.049 322.318 346.049 324.32C346.049 326.331 344.577 327.784 342.654 327.784ZM351.741 328.971V323.77C351.741 322.014 352.782 320.875 354.234 320.875C354.774 320.875 355.392 321.003 355.843 321.248L356.197 319.806C355.706 319.58 355.156 319.492 354.489 319.492C353.351 319.492 352.37 320.031 351.732 320.983V319.678H350.279V328.971H351.741ZM359.897 328.971V323.731C359.897 321.965 361.182 320.885 362.743 320.885C364.44 320.885 365.421 321.925 365.421 323.692V328.971H366.884V323.731C366.884 321.965 368.169 320.885 369.729 320.885C371.437 320.885 372.418 321.925 372.418 323.692V328.971H373.88V323.211C373.88 320.964 372.3 319.492 369.994 319.492C368.689 319.492 367.237 320.002 366.491 321.444C365.892 320.228 364.627 319.492 363.007 319.492C361.869 319.492 360.633 319.894 359.877 321.003V319.678H358.425V328.971H359.897ZM381.201 329.157C382.565 329.157 383.86 328.814 385.018 327.705L384.233 326.704C383.439 327.43 382.438 327.872 381.29 327.872C379.612 327.872 378.208 326.842 378.002 324.84H385.45C385.47 324.673 385.48 324.477 385.48 324.29C385.46 321.464 383.635 319.492 381.113 319.492C378.463 319.492 376.501 321.484 376.501 324.329C376.501 327.205 378.454 329.157 381.201 329.157ZM378.022 323.652C378.257 321.974 379.366 320.797 381.083 320.797C382.663 320.797 383.802 321.915 383.988 323.652H378.022ZM392.144 329.157C393.674 329.157 394.803 328.539 395.539 327.587V328.971H397.001V314.84H395.539V321.062C394.803 320.12 393.674 319.492 392.144 319.492C389.533 319.492 387.502 321.533 387.502 324.32C387.502 327.116 389.533 329.157 392.144 329.157ZM392.32 327.784C390.348 327.784 388.994 326.243 388.994 324.32C388.994 322.406 390.328 320.865 392.32 320.865C394.253 320.865 395.627 322.357 395.627 324.32C395.627 326.292 394.253 327.784 392.32 327.784ZM167.599 355.157C168.737 355.157 169.659 354.765 170.356 354.235L169.669 353.126C169.13 353.519 168.433 353.784 167.717 353.784C166.637 353.784 165.872 353.146 165.872 351.693V347.003H169.885V345.678H165.872V342.724H164.41V345.678H162.378V347.003H164.41V351.723C164.41 354.058 165.597 355.157 167.599 355.157ZM173.94 354.971V349.731C173.94 347.965 175.226 346.885 176.786 346.885C178.484 346.885 179.465 347.925 179.465 349.692V354.971H180.927V349.211C180.927 346.964 179.347 345.492 177.051 345.492C175.923 345.492 174.706 345.894 173.94 346.973V340.84H172.468V354.971H173.94ZM188.249 355.157C189.613 355.157 190.909 354.814 192.066 353.705L191.281 352.704C190.487 353.43 189.486 353.872 188.338 353.872C186.66 353.872 185.256 352.842 185.05 350.84H192.498C192.518 350.673 192.528 350.477 192.528 350.29C192.508 347.464 190.683 345.492 188.161 345.492C185.511 345.492 183.549 347.484 183.549 350.329C183.549 353.205 185.502 355.157 188.249 355.157ZM185.07 349.652C185.305 347.974 186.414 346.797 188.131 346.797C189.711 346.797 190.85 347.915 191.036 349.652H185.07ZM195.993 343.411C196.572 343.411 197.033 342.97 197.033 342.381C197.033 341.792 196.572 341.341 195.993 341.341C195.404 341.341 194.962 341.792 194.962 342.381C194.962 342.97 195.404 343.411 195.993 343.411ZM196.729 354.971V345.678H195.257V354.971H196.729ZM201.625 354.971V349.77C201.625 348.014 202.665 346.875 204.118 346.875C204.657 346.875 205.276 347.003 205.727 347.248L206.08 345.806C205.59 345.58 205.04 345.492 204.373 345.492C203.234 345.492 202.253 346.031 201.615 346.983V345.678H200.163V354.971H201.625ZM214.783 358.896V353.597C215.519 354.539 216.637 355.157 218.168 355.157C220.778 355.157 222.81 353.116 222.81 350.32C222.81 347.533 220.778 345.492 218.168 345.492C216.637 345.492 215.519 346.11 214.783 347.052V345.678H213.311V358.896H214.783ZM217.992 353.784C216.049 353.784 214.685 352.292 214.685 350.32C214.685 348.357 216.049 346.865 217.992 346.865C219.964 346.865 221.308 348.406 221.308 350.32C221.308 352.243 219.984 353.784 217.992 353.784ZM229.532 355.157C230.896 355.157 232.192 354.814 233.35 353.705L232.565 352.704C231.77 353.43 230.769 353.872 229.621 353.872C227.943 353.872 226.54 352.842 226.333 350.84H233.781C233.801 350.673 233.811 350.477 233.811 350.29C233.791 347.464 231.966 345.492 229.444 345.492C226.795 345.492 224.832 347.484 224.832 350.329C224.832 353.205 226.785 355.157 229.532 355.157ZM226.353 349.652C226.589 347.974 227.697 346.797 229.415 346.797C230.995 346.797 232.133 347.915 232.319 349.652H226.353ZM240.534 355.157C241.898 355.157 243.193 354.814 244.351 353.705L243.566 352.704C242.771 353.43 241.77 353.872 240.622 353.872C238.944 353.872 237.541 352.842 237.335 350.84H244.783C244.802 350.673 244.812 350.477 244.812 350.29C244.792 347.464 242.967 345.492 240.445 345.492C237.796 345.492 235.833 347.484 235.833 350.329C235.833 353.205 237.786 355.157 240.534 355.157ZM237.354 349.652C237.59 347.974 238.699 346.797 240.416 346.797C241.996 346.797 243.134 347.915 243.32 349.652H237.354ZM249.003 354.971V349.77C249.003 348.014 250.043 346.875 251.496 346.875C252.035 346.875 252.653 347.003 253.105 347.248L253.458 345.806C252.967 345.58 252.418 345.492 251.751 345.492C250.612 345.492 249.631 346.031 248.993 346.983V345.678H247.541V354.971H249.003ZM264.624 355.157C266.154 355.157 267.283 354.539 268.019 353.587V354.971H269.481V345.678H268.019V347.062C267.283 346.12 266.154 345.492 264.624 345.492C262.013 345.492 259.982 347.533 259.982 350.32C259.982 353.116 262.013 355.157 264.624 355.157ZM264.8 353.784C262.828 353.784 261.474 352.243 261.474 350.32C261.474 348.406 262.808 346.865 264.8 346.865C266.733 346.865 268.107 348.357 268.107 350.32C268.107 352.292 266.733 353.784 264.8 353.784ZM277.175 354.991L281.13 345.678H279.579L276.331 353.499L273.083 345.678H271.494L275.458 354.991H277.175ZM286.992 355.157C288.356 355.157 289.651 354.814 290.809 353.705L290.024 352.704C289.229 353.43 288.228 353.872 287.08 353.872C285.402 353.872 283.999 352.842 283.793 350.84H291.241C291.26 350.673 291.27 350.477 291.27 350.29C291.25 347.464 289.425 345.492 286.903 345.492C284.254 345.492 282.291 347.484 282.291 350.329C282.291 353.205 284.244 355.157 286.992 355.157ZM283.812 349.652C284.048 347.974 285.157 346.797 286.874 346.797C288.454 346.797 289.592 347.915 289.778 349.652H283.812ZM295.461 354.971V349.77C295.461 348.014 296.501 346.875 297.954 346.875C298.493 346.875 299.111 347.003 299.563 347.248L299.916 345.806C299.425 345.58 298.876 345.492 298.209 345.492C297.07 345.492 296.089 346.031 295.451 346.983V345.678H293.999V354.971H295.461ZM305.696 355.157C307.227 355.157 308.355 354.539 309.091 353.587V354.971H310.553V345.678H309.091V347.062C308.355 346.12 307.227 345.492 305.696 345.492C303.086 345.492 301.055 347.533 301.055 350.32C301.055 353.116 303.086 355.157 305.696 355.157ZM305.873 353.784C303.9 353.784 302.546 352.243 302.546 350.32C302.546 348.406 303.881 346.865 305.873 346.865C307.806 346.865 309.18 348.357 309.18 350.32C309.18 352.292 307.806 353.784 305.873 353.784ZM317.757 359.043C320.632 359.043 322.673 357.365 322.673 354.333V345.678H321.201V347.072C320.495 346.11 319.386 345.492 317.885 345.492C315.274 345.492 313.282 347.444 313.282 350.251C313.282 353.067 315.274 355.02 317.885 355.02C319.386 355.02 320.495 354.412 321.201 353.44V354.392C321.201 356.561 319.769 357.709 317.757 357.709C316.501 357.709 315.372 357.287 314.489 356.62L313.842 357.797C314.784 358.582 316.275 359.043 317.757 359.043ZM318.051 353.646C316.079 353.646 314.774 352.135 314.774 350.251C314.774 348.377 316.079 346.865 318.051 346.865C319.965 346.865 321.329 348.337 321.329 350.251C321.329 352.184 319.965 353.646 318.051 353.646ZM330.096 355.157C331.46 355.157 332.755 354.814 333.913 353.705L333.128 352.704C332.333 353.43 331.332 353.872 330.184 353.872C328.506 353.872 327.103 352.842 326.897 350.84H334.345C334.364 350.673 334.374 350.477 334.374 350.29C334.354 347.464 332.529 345.492 330.007 345.492C327.358 345.492 325.395 347.484 325.395 350.329C325.395 353.205 327.348 355.157 330.096 355.157ZM326.916 349.652C327.152 347.974 328.261 346.797 329.978 346.797C331.558 346.797 332.696 347.915 332.882 349.652H326.916ZM340.125 355.148C342.628 355.148 344.217 354.039 344.217 352.272C344.217 350.751 343.069 349.937 341.097 349.682L339.998 349.544C338.781 349.397 338.104 349.015 338.104 348.239C338.104 347.337 338.977 346.777 340.302 346.777C341.558 346.777 342.745 347.238 343.344 347.651L343.982 346.512C343.089 345.914 341.754 345.501 340.292 345.501C338.065 345.501 336.583 346.561 336.583 348.318C336.583 349.701 337.564 350.634 339.654 350.889L340.763 351.016C342.078 351.173 342.706 351.625 342.706 352.371C342.706 353.352 341.715 353.872 340.145 353.872C338.575 353.872 337.633 353.411 336.926 352.861L336.249 353.96C337.427 354.853 338.928 355.148 340.125 355.148Z" fill="#040505"/>
<path d="M148.057 270.255V156.479L102.498 175.375V196.753L126.839 186.745V270.255H148.057ZM203.696 272.016C228.757 272.016 247.493 251.519 247.493 214.208C247.493 176.896 228.757 156.399 203.696 156.399C178.635 156.399 159.979 176.896 159.979 214.208C159.979 251.519 178.635 272.016 203.696 272.016ZM203.696 251.439C191.205 251.439 182.078 239.349 182.078 214.208C182.078 189.066 191.205 176.976 203.696 176.976C216.267 176.976 225.394 189.066 225.394 214.208C225.394 239.349 216.267 251.439 203.696 251.439ZM298.939 272.016C324 272.016 342.736 251.519 342.736 214.208C342.736 176.896 324 156.399 298.939 156.399C273.878 156.399 255.222 176.896 255.222 214.208C255.222 251.519 273.878 272.016 298.939 272.016ZM298.939 251.439C286.448 251.439 277.321 239.349 277.321 214.208C277.321 189.066 286.448 176.976 298.939 176.976C311.509 176.976 320.637 189.066 320.637 214.208C320.637 239.349 311.509 251.439 298.939 251.439ZM364.152 244.474C370.798 244.474 375.773 239.568 375.773 232.714C375.773 225.895 370.798 220.954 364.152 220.954C357.646 220.954 352.706 225.895 352.706 232.714C352.706 239.568 357.646 244.474 364.152 244.474ZM368.049 270.255L395.778 221.546H390.803L363.074 270.255H368.049ZM364.152 240.334C360.151 240.334 357.124 237.202 357.124 232.714C357.124 228.226 360.151 225.095 364.152 225.095C368.292 225.095 371.354 228.226 371.354 232.714C371.354 237.202 368.292 240.334 364.152 240.334ZM394.595 270.812C401.206 270.812 406.181 265.906 406.181 259.052C406.181 252.198 401.206 247.292 394.595 247.292C388.054 247.292 383.114 252.198 383.114 259.052C383.114 265.906 388.054 270.812 394.595 270.812ZM394.595 266.671C390.559 266.671 387.533 263.575 387.533 259.052C387.533 254.564 390.559 251.432 394.595 251.432C398.736 251.432 401.763 254.564 401.763 259.052C401.763 263.54 398.736 266.671 394.595 266.671Z" fill="#040505"/>
</svg>
