<svg width="507" height="508" viewBox="0 0 507 508" fill="none" xmlns="http://www.w3.org/2000/svg">
<path d="M253.5 0.50005C192.456 0.500053 133.462 22.5277 87.356 62.5361C41.2505 102.544 11.1302 157.846 2.52899 218.282C-6.07221 278.717 7.42336 340.226 40.5363 391.509C73.6492 442.792 124.155 480.404 182.776 497.434C241.396 514.465 304.193 509.771 359.63 484.214C415.067 458.658 459.42 413.955 484.541 358.319C509.661 302.683 513.862 239.851 496.371 181.366C478.881 122.881 440.873 72.672 389.332 39.9629L379.824 54.9455C427.757 85.365 463.104 132.06 479.37 186.45C495.637 240.841 491.73 299.275 468.368 351.017C445.006 402.758 403.757 444.332 352.201 468.099C300.645 491.867 242.243 496.233 187.726 480.394C133.209 464.555 86.2387 429.576 55.4437 381.883C24.6487 334.19 12.0978 276.987 20.097 220.782C28.0961 164.577 56.1079 113.146 98.9861 75.9386C141.864 38.7308 196.729 18.245 253.5 18.245L253.5 0.50005Z" fill="#00BDA3"/>
<path d="M253.5 0.50005C301.604 0.500048 348.716 14.1872 389.332 39.9629L379.824 54.9455C342.051 30.9741 298.237 18.245 253.5 18.245L253.5 0.50005Z" fill="#F5F6F6"/>
<path d="M116.024 328.971H114.072L108.557 315.233H110.235L115.063 327.401L119.9 315.233H121.529L116.024 328.971ZM126.448 329.157C123.837 329.157 121.806 327.116 121.806 324.32C121.806 321.533 123.837 319.492 126.448 319.492C127.978 319.492 129.107 320.12 129.843 321.062V319.678H131.305V328.971H129.843V327.587C129.107 328.539 127.978 329.157 126.448 329.157ZM126.624 327.784C128.557 327.784 129.931 326.292 129.931 324.32C129.931 322.357 128.557 320.865 126.624 320.865C124.632 320.865 123.298 322.406 123.298 324.32C123.298 326.243 124.652 327.784 126.624 327.784ZM136.212 328.971H134.74V319.678H136.193V321.003C136.948 319.894 138.185 319.492 139.323 319.492C141.619 319.492 143.199 320.964 143.199 323.211V328.971H141.737V323.692C141.737 321.925 140.756 320.885 139.058 320.885C137.498 320.885 136.212 321.965 136.212 323.731V328.971ZM150.296 333.043C148.814 333.043 147.322 332.582 146.38 331.797L147.028 330.62C147.911 331.287 149.04 331.709 150.296 331.709C152.307 331.709 153.74 330.561 153.74 328.392V327.44C153.033 328.412 151.925 329.02 150.423 329.02C147.813 329.02 145.821 327.067 145.821 324.251C145.821 321.444 147.813 319.492 150.423 319.492C151.925 319.492 153.033 320.11 153.74 321.072V319.678H155.212V328.333C155.212 331.365 153.171 333.043 150.296 333.043ZM150.59 327.646C152.504 327.646 153.868 326.184 153.868 324.251C153.868 322.337 152.504 320.865 150.59 320.865C148.618 320.865 147.313 322.377 147.313 324.251C147.313 326.135 148.618 327.646 150.59 327.646ZM162.752 329.157C160.505 329.157 158.532 327.852 158.532 325.095V319.678H159.994V324.957C159.994 326.881 161.162 327.784 162.752 327.784C164.342 327.784 165.499 326.881 165.499 324.957V319.678H166.971V325.095C166.971 327.852 164.989 329.157 162.752 329.157ZM174.228 329.157C171.618 329.157 169.587 327.116 169.587 324.32C169.587 321.533 171.618 319.492 174.228 319.492C175.759 319.492 176.887 320.12 177.623 321.062V319.678H179.085V328.971H177.623V327.587C176.887 328.539 175.759 329.157 174.228 329.157ZM174.405 327.784C176.338 327.784 177.712 326.292 177.712 324.32C177.712 322.357 176.338 320.865 174.405 320.865C172.413 320.865 171.078 322.406 171.078 324.32C171.078 326.243 172.432 327.784 174.405 327.784ZM183.983 328.971H182.521V319.678H183.973V320.983C184.611 320.031 185.592 319.492 186.731 319.492C187.398 319.492 187.947 319.58 188.438 319.806L188.085 321.248C187.633 321.003 187.015 320.875 186.475 320.875C185.023 320.875 183.983 322.014 183.983 323.77V328.971ZM194.218 329.157C191.608 329.157 189.577 327.116 189.577 324.32C189.577 321.533 191.608 319.492 194.218 319.492C195.749 319.492 196.877 320.12 197.613 321.062V314.84H199.075V328.971H197.613V327.587C196.877 328.539 195.749 329.157 194.218 329.157ZM194.395 327.784C196.328 327.784 197.702 326.292 197.702 324.32C197.702 322.357 196.328 320.865 194.395 320.865C192.403 320.865 191.068 322.406 191.068 324.32C191.068 326.243 192.422 327.784 194.395 327.784ZM209.984 328.971H208.512V321.003H206.393V319.678H208.512V318.088C208.512 316.106 209.405 314.654 211.603 314.654C212.653 314.654 213.487 314.948 214.145 315.351L213.615 316.577C213.114 316.283 212.408 316.028 211.701 316.028C210.504 316.028 209.984 316.793 209.984 318.088V319.678H213.684V321.003H209.984V328.971ZM220.019 329.157C217.772 329.157 215.8 327.852 215.8 325.095V319.678H217.262V324.957C217.262 326.881 218.43 327.784 220.019 327.784C221.609 327.784 222.767 326.881 222.767 324.957V319.678H224.239V325.095C224.239 327.852 222.257 329.157 220.019 329.157ZM229.033 328.971H227.561V319.678H229.013V321.003C229.768 319.894 231.005 319.492 232.143 319.492C234.439 319.492 236.019 320.964 236.019 323.211V328.971H234.557V323.692C234.557 321.925 233.576 320.885 231.878 320.885C230.318 320.885 229.033 321.965 229.033 323.731V328.971ZM243.283 329.157C240.672 329.157 238.641 327.116 238.641 324.32C238.641 321.533 240.672 319.492 243.283 319.492C244.813 319.492 245.942 320.12 246.678 321.062V314.84H248.14V328.971H246.678V327.587C245.942 328.539 244.813 329.157 243.283 329.157ZM243.459 327.784C245.392 327.784 246.766 326.292 246.766 324.32C246.766 322.357 245.392 320.865 243.459 320.865C241.467 320.865 240.133 322.406 240.133 324.32C240.133 326.243 241.487 327.784 243.459 327.784ZM254.598 329.148C253.401 329.148 251.899 328.853 250.722 327.96L251.399 326.861C252.105 327.411 253.047 327.872 254.617 327.872C256.187 327.872 257.179 327.352 257.179 326.371C257.179 325.625 256.551 325.173 255.236 325.016L254.127 324.889C252.037 324.634 251.055 323.701 251.055 322.318C251.055 320.561 252.537 319.501 254.765 319.501C256.227 319.501 257.561 319.914 258.454 320.512L257.816 321.651C257.218 321.238 256.03 320.777 254.774 320.777C253.45 320.777 252.576 321.337 252.576 322.239C252.576 323.015 253.253 323.397 254.47 323.544L255.569 323.682C257.542 323.937 258.69 324.751 258.69 326.272C258.69 328.039 257.1 329.148 254.598 329.148ZM270.667 329.157C267.87 329.157 265.78 327.077 265.78 324.32C265.78 321.572 267.87 319.492 270.667 319.492C273.463 319.492 275.563 321.572 275.563 324.32C275.563 327.077 273.463 329.157 270.667 329.157ZM270.667 327.784C272.59 327.784 274.062 326.331 274.062 324.32C274.062 322.318 272.59 320.865 270.667 320.865C268.734 320.865 267.271 322.318 267.271 324.32C267.271 326.331 268.734 327.784 270.667 327.784ZM282.404 329.157C280.157 329.157 278.185 327.852 278.185 325.095V319.678H279.647V324.957C279.647 326.881 280.814 327.784 282.404 327.784C283.994 327.784 285.152 326.881 285.152 324.957V319.678H286.624V325.095C286.624 327.852 284.641 329.157 282.404 329.157ZM293.969 329.157C291.967 329.157 290.779 328.058 290.779 325.723V321.003H288.748V319.678H290.779V316.724H292.242V319.678H296.255V321.003H292.242V325.693C292.242 327.146 293.007 327.784 294.086 327.784C294.803 327.784 295.499 327.519 296.039 327.126L296.726 328.235C296.029 328.765 295.107 329.157 293.969 329.157ZM300.31 332.896H298.838V319.678H300.31V321.052C301.046 320.11 302.165 319.492 303.696 319.492C306.306 319.492 308.337 321.533 308.337 324.32C308.337 327.116 306.306 329.157 303.696 329.157C302.165 329.157 301.046 328.539 300.31 327.597V332.896ZM303.519 327.784C305.511 327.784 306.836 326.243 306.836 324.32C306.836 322.406 305.491 320.865 303.519 320.865C301.576 320.865 300.212 322.357 300.212 324.32C300.212 326.292 301.576 327.784 303.519 327.784ZM315.06 329.157C312.312 329.157 310.36 327.205 310.36 324.329C310.36 321.484 312.322 319.492 314.972 319.492C317.494 319.492 319.319 321.464 319.338 324.29C319.338 324.477 319.329 324.673 319.309 324.84H311.861C312.067 326.842 313.47 327.872 315.148 327.872C316.296 327.872 317.297 327.43 318.092 326.704L318.877 327.705C317.719 328.814 316.424 329.157 315.06 329.157ZM311.881 323.652H317.847C317.66 321.915 316.522 320.797 314.942 320.797C313.225 320.797 312.116 321.974 311.881 323.652ZM323.529 328.971H322.067V319.678H323.52V320.983C324.157 320.031 325.139 319.492 326.277 319.492C326.944 319.492 327.494 319.58 327.984 319.806L327.631 321.248C327.18 321.003 326.562 320.875 326.022 320.875C324.57 320.875 323.529 322.014 323.529 323.77V328.971ZM332.799 328.971H331.327V321.003H329.207V319.678H331.327V318.088C331.327 316.106 332.22 314.654 334.418 314.654C335.468 314.654 336.302 314.948 336.959 315.351L336.43 316.577C335.929 316.283 335.223 316.028 334.516 316.028C333.319 316.028 332.799 316.793 332.799 318.088V319.678H336.498V321.003H332.799V328.971ZM342.654 329.157C339.857 329.157 337.767 327.077 337.767 324.32C337.767 321.572 339.857 319.492 342.654 319.492C345.45 319.492 347.55 321.572 347.55 324.32C347.55 327.077 345.45 329.157 342.654 329.157ZM342.654 327.784C344.577 327.784 346.049 326.331 346.049 324.32C346.049 322.318 344.577 320.865 342.654 320.865C340.72 320.865 339.258 322.318 339.258 324.32C339.258 326.331 340.72 327.784 342.654 327.784ZM351.741 328.971H350.279V319.678H351.732V320.983C352.37 320.031 353.351 319.492 354.489 319.492C355.156 319.492 355.706 319.58 356.197 319.806L355.843 321.248C355.392 321.003 354.774 320.875 354.234 320.875C352.782 320.875 351.741 322.014 351.741 323.77V328.971ZM359.897 328.971H358.425V319.678H359.877V321.003C360.633 319.894 361.869 319.492 363.007 319.492C364.627 319.492 365.892 320.228 366.491 321.444C367.237 320.002 368.689 319.492 369.994 319.492C372.3 319.492 373.88 320.964 373.88 323.211V328.971H372.418V323.692C372.418 321.925 371.437 320.885 369.729 320.885C368.169 320.885 366.884 321.965 366.884 323.731V328.971H365.421V323.692C365.421 321.925 364.44 320.885 362.743 320.885C361.182 320.885 359.897 321.965 359.897 323.731V328.971ZM381.201 329.157C378.454 329.157 376.501 327.205 376.501 324.329C376.501 321.484 378.463 319.492 381.113 319.492C383.635 319.492 385.46 321.464 385.48 324.29C385.48 324.477 385.47 324.673 385.45 324.84H378.002C378.208 326.842 379.612 327.872 381.29 327.872C382.438 327.872 383.439 327.43 384.233 326.704L385.018 327.705C383.86 328.814 382.565 329.157 381.201 329.157ZM378.022 323.652H383.988C383.802 321.915 382.663 320.797 381.083 320.797C379.366 320.797 378.257 321.974 378.022 323.652ZM392.144 329.157C389.533 329.157 387.502 327.116 387.502 324.32C387.502 321.533 389.533 319.492 392.144 319.492C393.674 319.492 394.803 320.12 395.539 321.062V314.84H397.001V328.971H395.539V327.587C394.803 328.539 393.674 329.157 392.144 329.157ZM392.32 327.784C394.253 327.784 395.627 326.292 395.627 324.32C395.627 322.357 394.253 320.865 392.32 320.865C390.328 320.865 388.994 322.406 388.994 324.32C388.994 326.243 390.348 327.784 392.32 327.784ZM167.599 355.157C165.597 355.157 164.41 354.058 164.41 351.723V347.003H162.378V345.678H164.41V342.724H165.872V345.678H169.885V347.003H165.872V351.693C165.872 353.146 166.637 353.784 167.717 353.784C168.433 353.784 169.13 353.519 169.669 353.126L170.356 354.235C169.659 354.765 168.737 355.157 167.599 355.157ZM173.94 354.971H172.468V340.84H173.94V346.973C174.706 345.894 175.923 345.492 177.051 345.492C179.347 345.492 180.927 346.964 180.927 349.211V354.971H179.465V349.692C179.465 347.925 178.484 346.885 176.786 346.885C175.226 346.885 173.94 347.965 173.94 349.731V354.971ZM188.249 355.157C185.502 355.157 183.549 353.205 183.549 350.329C183.549 347.484 185.511 345.492 188.161 345.492C190.683 345.492 192.508 347.464 192.528 350.29C192.528 350.477 192.518 350.673 192.498 350.84H185.05C185.256 352.842 186.66 353.872 188.338 353.872C189.486 353.872 190.487 353.43 191.281 352.704L192.066 353.705C190.909 354.814 189.613 355.157 188.249 355.157ZM185.07 349.652H191.036C190.85 347.915 189.711 346.797 188.131 346.797C186.414 346.797 185.305 347.974 185.07 349.652ZM195.993 343.411C195.404 343.411 194.962 342.97 194.962 342.381C194.962 341.792 195.404 341.341 195.993 341.341C196.572 341.341 197.033 341.792 197.033 342.381C197.033 342.97 196.572 343.411 195.993 343.411ZM196.729 354.971H195.257V345.678H196.729V354.971ZM201.625 354.971H200.163V345.678H201.615V346.983C202.253 346.031 203.234 345.492 204.373 345.492C205.04 345.492 205.59 345.58 206.08 345.806L205.727 347.248C205.276 347.003 204.657 346.875 204.118 346.875C202.665 346.875 201.625 348.014 201.625 349.77V354.971ZM214.783 358.896H213.311V345.678H214.783V347.052C215.519 346.11 216.637 345.492 218.168 345.492C220.778 345.492 222.81 347.533 222.81 350.32C222.81 353.116 220.778 355.157 218.168 355.157C216.637 355.157 215.519 354.539 214.783 353.597V358.896ZM217.992 353.784C219.984 353.784 221.308 352.243 221.308 350.32C221.308 348.406 219.964 346.865 217.992 346.865C216.049 346.865 214.685 348.357 214.685 350.32C214.685 352.292 216.049 353.784 217.992 353.784ZM229.532 355.157C226.785 355.157 224.832 353.205 224.832 350.329C224.832 347.484 226.795 345.492 229.444 345.492C231.966 345.492 233.791 347.464 233.811 350.29C233.811 350.477 233.801 350.673 233.781 350.84H226.333C226.54 352.842 227.943 353.872 229.621 353.872C230.769 353.872 231.77 353.43 232.565 352.704L233.35 353.705C232.192 354.814 230.896 355.157 229.532 355.157ZM226.353 349.652H232.319C232.133 347.915 230.995 346.797 229.415 346.797C227.697 346.797 226.589 347.974 226.353 349.652ZM240.534 355.157C237.786 355.157 235.833 353.205 235.833 350.329C235.833 347.484 237.796 345.492 240.445 345.492C242.967 345.492 244.792 347.464 244.812 350.29C244.812 350.477 244.802 350.673 244.783 350.84H237.335C237.541 352.842 238.944 353.872 240.622 353.872C241.77 353.872 242.771 353.43 243.566 352.704L244.351 353.705C243.193 354.814 241.898 355.157 240.534 355.157ZM237.354 349.652H243.32C243.134 347.915 241.996 346.797 240.416 346.797C238.699 346.797 237.59 347.974 237.354 349.652ZM249.003 354.971H247.541V345.678H248.993V346.983C249.631 346.031 250.612 345.492 251.751 345.492C252.418 345.492 252.967 345.58 253.458 345.806L253.105 347.248C252.653 347.003 252.035 346.875 251.496 346.875C250.043 346.875 249.003 348.014 249.003 349.77V354.971ZM264.624 355.157C262.013 355.157 259.982 353.116 259.982 350.32C259.982 347.533 262.013 345.492 264.624 345.492C266.154 345.492 267.283 346.12 268.019 347.062V345.678H269.481V354.971H268.019V353.587C267.283 354.539 266.154 355.157 264.624 355.157ZM264.8 353.784C266.733 353.784 268.107 352.292 268.107 350.32C268.107 348.357 266.733 346.865 264.8 346.865C262.808 346.865 261.474 348.406 261.474 350.32C261.474 352.243 262.828 353.784 264.8 353.784ZM277.175 354.991H275.458L271.494 345.678H273.083L276.331 353.499L279.579 345.678H281.13L277.175 354.991ZM286.992 355.157C284.244 355.157 282.291 353.205 282.291 350.329C282.291 347.484 284.254 345.492 286.903 345.492C289.425 345.492 291.25 347.464 291.27 350.29C291.27 350.477 291.26 350.673 291.241 350.84H283.793C283.999 352.842 285.402 353.872 287.08 353.872C288.228 353.872 289.229 353.43 290.024 352.704L290.809 353.705C289.651 354.814 288.356 355.157 286.992 355.157ZM283.812 349.652H289.778C289.592 347.915 288.454 346.797 286.874 346.797C285.157 346.797 284.048 347.974 283.812 349.652ZM295.461 354.971H293.999V345.678H295.451V346.983C296.089 346.031 297.07 345.492 298.209 345.492C298.876 345.492 299.425 345.58 299.916 345.806L299.563 347.248C299.111 347.003 298.493 346.875 297.954 346.875C296.501 346.875 295.461 348.014 295.461 349.77V354.971ZM305.696 355.157C303.086 355.157 301.055 353.116 301.055 350.32C301.055 347.533 303.086 345.492 305.696 345.492C307.227 345.492 308.355 346.12 309.091 347.062V345.678H310.553V354.971H309.091V353.587C308.355 354.539 307.227 355.157 305.696 355.157ZM305.873 353.784C307.806 353.784 309.18 352.292 309.18 350.32C309.18 348.357 307.806 346.865 305.873 346.865C303.881 346.865 302.546 348.406 302.546 350.32C302.546 352.243 303.9 353.784 305.873 353.784ZM317.757 359.043C316.275 359.043 314.784 358.582 313.842 357.797L314.489 356.62C315.372 357.287 316.501 357.709 317.757 357.709C319.769 357.709 321.201 356.561 321.201 354.392V353.44C320.495 354.412 319.386 355.02 317.885 355.02C315.274 355.02 313.282 353.067 313.282 350.251C313.282 347.444 315.274 345.492 317.885 345.492C319.386 345.492 320.495 346.11 321.201 347.072V345.678H322.673V354.333C322.673 357.365 320.632 359.043 317.757 359.043ZM318.051 353.646C319.965 353.646 321.329 352.184 321.329 350.251C321.329 348.337 319.965 346.865 318.051 346.865C316.079 346.865 314.774 348.377 314.774 350.251C314.774 352.135 316.079 353.646 318.051 353.646ZM330.096 355.157C327.348 355.157 325.395 353.205 325.395 350.329C325.395 347.484 327.358 345.492 330.007 345.492C332.529 345.492 334.354 347.464 334.374 350.29C334.374 350.477 334.364 350.673 334.345 350.84H326.897C327.103 352.842 328.506 353.872 330.184 353.872C331.332 353.872 332.333 353.43 333.128 352.704L333.913 353.705C332.755 354.814 331.46 355.157 330.096 355.157ZM326.916 349.652H332.882C332.696 347.915 331.558 346.797 329.978 346.797C328.261 346.797 327.152 347.974 326.916 349.652ZM340.125 355.148C338.928 355.148 337.427 354.853 336.249 353.96L336.926 352.861C337.633 353.411 338.575 353.872 340.145 353.872C341.715 353.872 342.706 353.352 342.706 352.371C342.706 351.625 342.078 351.173 340.763 351.016L339.654 350.889C337.564 350.634 336.583 349.701 336.583 348.318C336.583 346.561 338.065 345.501 340.292 345.501C341.754 345.501 343.089 345.914 343.982 346.512L343.344 347.651C342.745 347.238 341.558 346.777 340.302 346.777C338.977 346.777 338.104 347.337 338.104 348.239C338.104 349.015 338.781 349.397 339.998 349.544L341.097 349.682C343.069 349.937 344.217 350.751 344.217 352.272C344.217 354.039 342.628 355.148 340.125 355.148Z" fill="#040505"/>
<path d="M191.526 270.255H166.786L191.847 230.621C190.325 230.782 188.724 230.942 186.963 230.942C165.585 230.942 150.932 215.008 150.932 194.271C150.932 172.332 167.586 156.399 190.085 156.399C212.424 156.399 229.158 172.172 229.158 193.79C229.158 203.559 225.875 212.927 219.71 223.255L191.526 270.255ZM190.085 212.206C200.174 212.206 207.14 204.76 207.14 194.111C207.14 183.302 200.174 175.855 190.085 175.855C179.997 175.855 172.951 183.302 172.951 194.111C172.951 204.76 179.997 212.206 190.085 212.206ZM284.744 270.255H263.526V186.745L239.185 196.753V175.375L284.744 156.479V270.255ZM316.759 244.474C310.253 244.474 305.313 239.568 305.313 232.714C305.313 225.895 310.253 220.954 316.759 220.954C323.404 220.954 328.38 225.895 328.38 232.714C328.38 239.568 323.404 244.474 316.759 244.474ZM320.656 270.255H315.681L343.41 221.546H348.385L320.656 270.255ZM316.759 240.334C320.899 240.334 323.961 237.202 323.961 232.714C323.961 228.226 320.899 225.095 316.759 225.095C312.758 225.095 309.731 228.226 309.731 232.714C309.731 237.202 312.758 240.334 316.759 240.334ZM347.202 270.812C340.661 270.812 335.721 265.906 335.721 259.052C335.721 252.198 340.661 247.292 347.202 247.292C353.813 247.292 358.788 252.198 358.788 259.052C358.788 265.906 353.813 270.812 347.202 270.812ZM347.202 266.671C351.343 266.671 354.37 263.54 354.37 259.052C354.37 254.564 351.343 251.432 347.202 251.432C343.166 251.432 340.14 254.564 340.14 259.052C340.14 263.575 343.166 266.671 347.202 266.671Z" fill="#040505"/>
</svg>
